<svg id="svg" version="1.1" xmlns="http://www.w3.org/2000/svg" xmlns:xlink="http://www.w3.org/1999/xlink" width="400" height="400" viewBox="0, 0, 400,400"><g id="svgg"><path id="path0" d="M119.917 63.006 C 103.425 65.023,88.785 74.771,81.254 88.750 C 80.809 89.575,80.283 90.550,80.084 90.917 C 78.169 94.452,76.256 100.409,75.406 105.488 C 74.690 109.763,74.673 111.566,74.670 180.878 L 74.667 247.173 75.125 247.065 C 75.377 247.006,77.571 246.448,80.000 245.826 C 82.429 245.203,86.067 244.271,88.083 243.755 C 90.100 243.239,92.313 242.667,93.000 242.484 L 94.250 242.153 94.250 235.368 C 94.250 212.141,103.235 194.084,120.089 183.443 C 121.283 182.690,121.358 182.608,121.240 182.193 C 121.170 181.950,121.084 172.365,121.049 160.894 L 120.984 140.037 116.867 139.954 C 108.831 139.791,105.504 137.348,105.886 131.892 C 106.216 127.187,109.260 125.372,117.099 125.207 L 120.948 125.126 121.053 119.771 C 121.352 104.572,124.271 98.381,132.734 94.993 C 140.437 91.910,156.112 92.002,161.750 95.163 C 166.387 97.763,167.250 103.057,163.623 106.652 C 161.807 108.452,160.228 108.656,154.333 107.852 C 144.317 106.486,141.911 108.858,141.714 120.292 L 141.630 125.167 144.690 125.167 C 154.511 125.167,158.117 127.003,158.301 132.096 C 158.519 138.140,156.001 139.755,146.042 139.956 L 141.667 140.045 141.667 157.625 L 141.667 175.206 142.125 175.108 C 147.804 173.906,156.250 174.037,162.435 175.424 C 180.685 179.518,195.567 196.240,201.956 219.833 C 203.373 225.069,202.411 228.975,198.981 231.909 C 197.318 233.331,195.968 233.907,192.333 234.744 C 191.646 234.903,189.696 235.365,188.000 235.772 C 186.304 236.179,184.467 236.618,183.917 236.748 C 182.023 237.195,178.578 238.013,176.167 238.589 C 170.871 239.853,165.975 241.021,163.917 241.509 C 162.725 241.791,160.700 242.274,159.417 242.581 C 158.133 242.889,156.221 243.343,155.167 243.592 C 154.112 243.840,151.563 244.447,149.500 244.940 C 147.438 245.433,144.813 246.059,143.667 246.331 C 142.521 246.604,140.308 247.130,138.750 247.502 C 134.244 248.577,134.026 248.629,131.833 249.150 C 130.688 249.422,128.962 249.834,128.000 250.065 C 124.974 250.793,121.478 251.618,119.781 252.006 L 118.145 252.379 118.250 253.065 C 118.807 256.700,120.708 263.319,121.991 266.091 C 122.271 266.696,122.500 267.228,122.500 267.274 C 122.500 268.378,127.599 276.817,130.081 279.823 C 138.722 290.283,149.044 295.972,161.250 297.002 C 166.952 297.483,170.022 300.418,170.053 305.417 C 170.084 310.510,166.386 313.526,160.417 313.276 C 141.662 312.491,124.213 304.186,113.262 290.833 C 112.548 289.962,111.841 289.099,111.690 288.915 C 106.295 282.300,100.591 270.455,97.659 259.779 C 97.161 257.966,97.090 257.815,96.767 257.903 C 96.574 257.956,94.354 258.529,91.833 259.177 C 89.313 259.825,86.275 260.608,85.083 260.916 C 83.892 261.225,81.117 261.939,78.918 262.503 C 76.719 263.068,74.863 263.565,74.793 263.608 C 74.609 263.722,74.644 288.485,74.833 292.390 C 76.064 317.735,95.290 338.014,120.667 340.734 C 124.170 341.109,302.680 341.121,306.294 340.746 C 316.368 339.700,327.685 335.036,333.769 329.421 C 333.871 329.327,334.710 328.585,335.634 327.772 C 336.558 326.959,337.862 325.690,338.532 324.952 C 339.202 324.214,339.828 323.529,339.924 323.430 C 345.876 317.284,350.746 306.263,352.120 295.833 C 352.581 292.335,352.581 111.328,352.120 107.833 C 348.921 83.576,330.537 65.441,306.598 62.927 C 302.460 62.492,123.498 62.568,119.917 63.006 M229.833 106.226 C 230.063 106.269,230.700 106.353,231.250 106.413 C 251.191 108.575,264.201 124.187,264.241 146.000 C 264.284 169.432,250.401 184.813,227.965 186.189 C 202.916 187.726,185.765 171.422,185.777 146.083 C 185.787 123.920,198.841 108.498,219.417 106.342 C 220.333 106.246,221.346 106.137,221.667 106.099 C 222.394 106.013,229.266 106.120,229.833 106.226 M298.277 107.749 C 302.566 108.566,304.718 111.655,305.378 117.945 L 305.583 119.898 306.489 118.407 C 307.538 116.681,307.579 116.624,309.317 114.413 C 315.127 107.019,323.264 105.463,333.167 109.851 C 340.933 113.292,343.150 119.948,338.153 124.816 C 335.610 127.293,333.512 127.592,328.794 126.151 C 314.841 121.888,309.246 125.917,307.010 141.833 C 306.414 146.080,306.298 149.258,306.233 163.167 C 306.151 180.903,306.008 181.979,303.381 184.750 C 297.552 190.897,288.258 187.728,286.761 179.083 C 286.364 176.794,286.367 119.571,286.764 116.900 C 287.815 109.824,291.944 106.542,298.277 107.749 M223.083 120.599 C 212.087 121.681,205.500 131.260,205.500 146.167 C 205.500 162.465,213.314 172.164,226.000 171.613 C 237.665 171.106,244.545 161.666,244.544 146.167 C 244.542 129.359,236.113 119.317,223.083 120.599 M145.250 191.269 C 128.348 193.699,118.882 202.773,115.188 220.083 C 114.536 223.137,114.417 224.741,114.417 230.450 C 114.417 234.342,114.474 236.208,114.598 236.332 C 114.729 236.463,115.750 236.280,118.265 235.676 C 120.182 235.216,122.688 234.616,123.833 234.344 C 124.979 234.072,126.854 233.626,128.000 233.354 C 129.146 233.082,131.096 232.619,132.333 232.326 C 133.571 232.032,136.271 231.388,138.333 230.894 C 140.396 230.401,143.021 229.774,144.167 229.502 C 145.313 229.230,147.525 228.702,149.083 228.330 C 150.642 227.957,152.554 227.503,153.333 227.321 C 156.138 226.664,156.791 226.509,159.500 225.856 C 161.012 225.491,163.225 224.963,164.417 224.681 C 165.608 224.400,168.271 223.765,170.333 223.270 C 172.396 222.775,175.283 222.090,176.750 221.747 C 180.004 220.987,179.753 221.262,179.180 219.078 C 175.285 204.242,166.206 194.187,154.415 191.651 C 152.804 191.304,146.756 191.052,145.250 191.269 M295.000 207.838 C 297.516 208.230,300.293 210.269,301.306 212.467 C 302.197 214.399,302.327 215.966,302.330 224.824 L 302.333 232.565 293.917 224.162 C 287.517 217.772,285.500 215.663,285.500 215.361 C 285.500 211.954,288.774 208.392,292.417 207.836 C 293.623 207.651,293.803 207.651,295.000 207.838 M292.625 237.542 L 300.790 245.667 304.520 245.668 C 312.090 245.670,314.584 247.197,314.583 251.830 C 314.583 256.288,311.441 258.000,303.257 258.000 L 300.833 258.000 300.835 275.542 C 300.836 285.773,300.905 293.862,301.002 294.953 C 301.471 300.253,303.778 301.758,309.750 300.658 C 313.124 300.036,313.706 299.966,314.981 300.029 C 317.989 300.176,320.185 302.590,320.185 305.750 C 320.185 311.219,314.133 314.184,302.917 314.210 C 291.755 314.236,286.292 310.744,284.596 302.500 C 283.714 298.210,283.667 296.893,283.667 276.643 L 283.667 258.000 281.972 258.000 C 276.594 258.000,273.746 255.832,273.752 251.742 C 273.758 247.883,276.787 245.667,282.055 245.667 L 283.667 245.667 283.667 238.023 C 283.667 229.518,283.716 228.652,284.170 229.119 C 284.330 229.283,288.134 233.073,292.625 237.542 M237.167 244.415 C 250.319 246.082,256.086 250.934,257.997 261.940 C 258.611 265.476,258.671 267.139,258.660 280.250 C 258.647 295.643,258.580 294.932,260.742 302.417 C 262.444 308.313,261.963 310.383,258.328 312.810 C 253.518 316.023,249.210 314.053,244.124 306.314 L 242.940 304.512 242.178 305.090 C 232.281 312.588,222.231 315.579,212.750 313.848 C 192.603 310.169,189.121 285.248,207.677 277.543 C 209.702 276.701,211.722 276.175,217.083 275.089 C 217.725 274.959,219.713 274.545,221.500 274.169 C 223.287 273.792,225.125 273.412,225.583 273.324 C 228.867 272.692,240.374 269.796,241.477 269.325 C 241.927 269.133,241.906 268.063,241.397 265.167 C 240.220 258.470,237.466 256.269,229.984 256.047 C 220.818 255.774,216.827 257.665,212.667 264.250 C 210.133 268.261,209.453 268.874,207.171 269.206 C 202.202 269.931,198.339 266.525,198.735 261.769 C 199.541 252.112,209.734 245.168,224.667 244.103 C 226.785 243.952,235.160 244.161,237.167 244.415 M241.299 279.676 C 240.528 280.125,233.337 281.955,227.917 283.081 C 215.925 285.572,212.940 287.649,212.942 293.500 C 212.946 301.329,221.319 305.252,230.695 301.819 C 237.176 299.447,240.380 295.538,241.412 288.746 C 241.723 286.701,241.973 279.497,241.733 279.505 C 241.651 279.508,241.455 279.585,241.299 279.676 " stroke="none" fill="#dc1c2c" fill-rule="evenodd"></path><path id="path1" d="" stroke="none" fill="#dc242c" fill-rule="evenodd"></path><path id="path2" d="" stroke="none" fill="#e01c2c" fill-rule="evenodd"></path><path id="path3" d="" stroke="none" fill="#e01c2c" fill-rule="evenodd"></path><path id="path4" d="" stroke="none" fill="#e01c2c" fill-rule="evenodd"></path></g></svg>